<svg height="512" viewBox="0 0 512 512" width="512" xmlns="http://www.w3.org/2000/svg" xmlns:xlink="http://www.w3.org/1999/xlink">

  <linearGradient id="linear-gradient" gradientUnits="userSpaceOnUse" x1="128.343" x2="383.657" y1="395.657" y2="140.343">
  <stop offset=".03" stop-color="#2196F3"/>
  <stop offset="1" stop-color="#CECFD1"/>
  </linearGradient>
  <g id="gradient">
  <path d="m256 224a40 40 0 1 0 -40-40 40.045 40.045 0 0 0 40 40zm0-64a24 24 0 1 1 -24 24 24.028 24.028 0 0 1 24-24zm81.344 268.438a8 8 0 0 0 6.656 3.562 7.857 7.857 0 0 0 .917-.053 8 8 0 0 0 6.575-5.138l24-64a8 8 0 0 0 -.98-7.459l-38.738-54.232 9.466-45.436a214.746 214.746 0 0 0 -17.84-138.763 223.48 223.48 0 0 0 -53.52-86.353l-12.223-12.223a8 8 0 0 0 -11.314 0l-12.223 12.223a223.48 223.48 0 0 0 -53.52 86.353 214.746 214.746 0 0 0 -17.841 138.763l9.466 45.436-38.735 54.232a8 8 0 0 0 -.98 7.459l24 64a8 8 0 0 0 6.575 5.138 7.857 7.857 0 0 0 .915.053 8 8 0 0 0 6.654-3.562l29.627-44.438h6.988a75.978 75.978 0 0 0 11.055 73.733l27.362 35.179a8 8 0 0 0 12.628 0l27.362-35.179a75.978 75.978 0 0 0 11.055-73.733h6.988zm21.669-67.256-17.02 45.385-21.477-32.216 10.817-51.922zm-109.578-319.302 6.565-6.566 6.565 6.566a207.518 207.518 0 0 1 46.01 70.12h-105.15a207.518 207.518 0 0 1 46.01-70.12zm-52.421 86.12h117.972a198.718 198.718 0 0 1 14.588 124.418l-24.074 115.582h-27.254l1.515-6.06a8.01 8.01 0 0 0 -.171-4.47l-12.971-38.912a40 40 0 1 0 -21.238 0l-12.971 38.912a8.01 8.01 0 0 0 -.171 4.47l1.515 6.06h-27.249l-24.079-115.582a198.718 198.718 0 0 1 14.588-124.418zm51.312 232.32 7.674-23.02 7.674 23.022-7.674 30.693zm7.674-56.32a24 24 0 1 1 24-24 24.028 24.028 0 0 1 -24 24zm-85.993 102.567-17.02-45.385 27.68-38.753 10.817 51.922zm118.9-5.274a60.285 60.285 0 0 1 -11.864 46.617l-21.043 27.059-21.047-27.059a60.285 60.285 0 0 1 -11.864-46.617 59.678 59.678 0 0 1 5.647-17.293h9.018l10.485 41.94a8 8 0 0 0 15.522 0l10.485-41.94h9.018a59.678 59.678 0 0 1 5.647 17.293zm-29.436-331.313a87.824 87.824 0 0 0 -12.049 21.006 8 8 0 0 1 -14.844-5.972 103.846 103.846 0 0 1 14.244-24.832 8 8 0 1 1 12.649 9.8z" fill="url(#linear-gradient)"/></g></svg>


  